<svg id="Icons" height="512" viewBox="0 0 74 74" width="512" xmlns="http://www.w3.org/2000/svg"><path d="m61 72h-48a1 1 0 0 1 -1-1v-68a1 1 0 0 1 1-1h48a1 1 0 0 1 1 1v43.53a1 1 0 0 1 -2 0v-42.53h-46v66h46v-6.53a1 1 0 0 1 2 0v7.53a1 1 0 0 1 -1 1z"/><path d="m61 57.47a1 1 0 0 1 -1-1v-2.94a1 1 0 0 1 2 0v2.94a1 1 0 0 1 -1 1z"/><path d="m51 12h-27a1 1 0 0 1 -1-1v-8a1 1 0 0 1 1-1h27a1 1 0 0 1 1 1v8a1 1 0 0 1 -1 1zm-26-2h25v-6h-25z"/><path d="m37 18a7.008 7.008 0 0 1 -7-7 1 1 0 0 1 2 0 5 5 0 0 0 10 0 1 1 0 0 1 2 0 7.008 7.008 0 0 1 -7 7z"/><path d="m51 72h-27a1 1 0 0 1 -1-1v-8a1 1 0 0 1 1-1h27a1 1 0 0 1 1 1v8a1 1 0 0 1 -1 1zm-26-2h25v-6h-25z"/><path d="m43 64a1 1 0 0 1 -1-1 5 5 0 0 0 -10 0 1 1 0 0 1 -2 0 7 7 0 0 1 14 0 1 1 0 0 1 -1 1z"/><path d="m61 38h-48a1 1 0 0 1 0-2h48a1 1 0 0 1 0 2z"/><path d="m37 49a12 12 0 1 1 12-12 12.013 12.013 0 0 1 -12 12zm0-22a10 10 0 1 0 10 10 10.011 10.011 0 0 0 -10-10z"/></svg>