<?xml version="1.0" encoding="UTF-8"?>
<svg width="523px" height="523px" viewBox="0 0 523 523" version="1.1" xmlns="http://www.w3.org/2000/svg" xmlns:xlink="http://www.w3.org/1999/xlink">
    <title>Group</title>
    <g id="Page-1" stroke="none" stroke-width="1" fill="none" fill-rule="evenodd">
        <g id="Artboard" transform="translate(-245.000000, -256.000000)">
            <g id="Group" transform="translate(245.000000, 256.000000)">
                <path d="M250.548098,488.871945 L223.984487,506.256129 C214.742073,512.304698 202.346284,509.715575 196.297716,500.473162 C196.271951,500.433793 196.246326,500.394334 196.22084,500.354784 L179.024558,473.669147 C174.718107,466.986284 166.862352,463.488676 159.014439,464.760068 L127.676587,469.836916 C116.773048,471.60333 106.502022,464.196227 104.735608,453.292688 C104.728084,453.246244 104.720723,453.199773 104.713527,453.153277 L99.8579684,421.780376 C98.6419947,413.923686 92.8880103,407.533238 85.2014634,405.502678 L54.5079706,397.394358 C43.8286269,394.573188 37.458318,383.62886 40.2794874,372.949516 C40.2915043,372.904027 40.3036817,372.85858 40.3160194,372.813177 L48.6407542,342.177672 C50.7255108,334.505647 48.0682135,326.327327 41.8721068,321.345918 L17.1301569,301.45443 C8.52156401,294.533483 7.15345656,281.944304 14.0744034,273.335711 C14.1038836,273.299042 14.133493,273.262477 14.1632312,273.226017 L34.2288373,248.625066 C39.2538509,242.464269 40.1527116,233.912182 36.5184081,226.841254 L22.0061092,198.606018 C16.9567709,188.781989 20.8274231,176.724741 30.6514529,171.675403 C30.6932989,171.653895 30.7352207,171.632535 30.7772174,171.611323 L59.1141691,157.298653 C66.2105693,153.714342 70.5101667,146.267221 70.0660706,138.329403 L68.2927309,106.632548 C67.6757237,95.6040989 76.1158647,86.1635917 87.1443134,85.5465845 C87.1912897,85.5439563 87.2382751,85.5414939 87.2852687,85.5391973 L118.99385,83.989599 C126.934604,83.6015343 133.891499,78.5470544 136.714399,71.1148666 L147.986645,41.4370662 C151.908655,31.1111176 163.458907,25.9196997 173.784856,29.8417098 C173.82884,29.8584159 173.872765,29.875277 173.91663,29.892293 L203.514138,41.3737063 C210.926219,44.2489874 219.337501,42.4611143 224.939291,36.8196495 L247.308049,14.2924654 C255.090925,6.45446713 267.754146,6.4097819 275.592144,14.1926581 C275.62553,14.2258097 275.6588,14.259079 275.691951,14.2924654 L298.060709,36.8196495 C303.662499,42.4611143 312.073781,44.2489874 319.485862,41.3737063 L349.08337,29.892293 C359.381383,25.8975063 370.967985,31.0072802 374.962772,41.3052925 C374.979788,41.3491574 374.996649,41.3930823 375.013355,41.4370662 L386.285601,71.1148666 C389.108501,78.5470544 396.065396,83.6015343 404.00615,83.989599 L435.714731,85.5391973 C446.74726,86.078357 455.253816,95.4590637 454.714656,106.491592 C454.71236,106.538586 454.709897,106.585571 454.707269,106.632548 L452.933929,138.329403 C452.489833,146.267221 456.789431,153.714342 463.885831,157.298653 L492.222783,171.611323 C502.082203,176.591203 506.037851,188.620834 501.057971,198.480254 C501.036759,198.522251 501.015399,198.564172 500.993891,198.606018 L486.481592,226.841254 C482.847288,233.912182 483.746149,242.464269 488.771163,248.625066 L508.836769,273.226017 C515.818298,281.785552 514.539071,294.384073 505.979536,301.365602 C505.943076,301.39534 505.906512,301.42495 505.869843,301.45443 L481.127893,321.345918 C474.931787,326.327327 472.274489,334.505647 474.359246,342.177672 L482.683981,372.813177 C485.580448,383.472345 479.287536,394.461358 468.628369,397.357826 C468.582965,397.370163 468.537519,397.382341 468.492029,397.394358 L437.798537,405.502678 C430.11199,407.533238 424.358005,413.923686 423.142032,421.780376 L418.286473,453.153277 C416.597053,464.069011 406.378558,471.548416 395.462824,469.858997 C395.416328,469.851801 395.369858,469.84444 395.323413,469.836916 L363.985561,464.760068 C356.137648,463.488676 348.281893,466.986284 343.975442,473.669147 L326.77916,500.354784 C320.795969,509.639654 308.418761,512.316195 299.133891,506.333005 C299.094341,506.307519 299.054882,506.281894 299.015513,506.256129 L272.451902,488.871945 C265.799597,484.518437 257.200403,484.518437 250.548098,488.871945 Z" id="Star" fill="#50C9FF"></path>
                <polygon id="Path" fill="#FFFFFF" points="138.5912 262.687867 228.576602 358.131326 396.4088 202.419662 369.042146 172.131326 231.076052 302.239772 167.776866 234.679168"></polygon>
            </g>
        </g>
    </g>
</svg>