<?xml version="1.0" encoding="UTF-8"?>
<svg width="340px" height="463px" viewBox="0 0 340 463" version="1.1" xmlns="http://www.w3.org/2000/svg" xmlns:xlink="http://www.w3.org/1999/xlink">
    <!-- Generator: Sketch 57.1 (83088) - https://sketch.com -->
    <title>icons8-ferrari</title>
    <desc>Created with Sketch.</desc>
    <g id="Page-1" stroke="none" stroke-width="1" fill="none" fill-rule="evenodd">
        <g id="icons8-ferrari" fill="#000000" fill-rule="nonzero">
            <path d="M170,0.84375 L0,32.71875 L0,164.55469 C0,172.28906 1.5625,355.53125 164.64844,459.4375 L170,462.875 L175.39063,459.4375 C338.125,355.02344 340,172.25 340,164.51563 L340,32.71875 L170,0.84375 Z M170,21.15625 L320,49.28125 L320,68.96875 L170,40.84375 L20,68.96875 L20,49.28125 L170,21.15625 Z M170,61.15625 L320,89.28125 L320,113.77344 C271.91406,97.40625 221.5625,89.00781 170,89.00781 C102.92969,89.00781 50.89844,102.60156 20,113.46094 L20,89.28125 L170,61.15625 Z M170,109.00781 C221.64063,109.00781 272.07031,117.67969 320,134.86719 L320,164.51563 C320,171.70313 318.24219,339.98438 170,439.08594 C21.44531,340.45313 20,171.78125 20,164.51563 L20,134.71094 C48.20313,124.125 100.625,109.00781 170,109.00781 Z" id="Shape"></path>
            <g id="football" transform="translate(81.000000, 176.000000)">
                <path d="M142.230464,86.1475661 C146.091688,79.5264727 148.663157,72.0698629 149.600325,64.1204247 C149.603771,64.0952104 149.606068,64.069996 149.609513,64.0447814 C149.864478,61.8557059 150,59.629955 150,57.3732591 C150,42.4715007 144.275925,28.8797496 134.908839,18.6690308 C134.759535,18.4604384 134.583816,18.2701835 134.383979,18.1062896 C128.299277,11.6479441 120.737618,6.59014856 112.239939,3.48189073 C112.087189,3.41312367 111.928698,3.35581818 111.766761,3.31455812 C105.74293,1.17132739 99.2608508,0 92.5077283,0 C84.9759296,0 77.7783414,1.45556336 71.1802652,4.09506084 C71.0011007,4.14892822 70.828827,4.21998706 70.662296,4.30709192 C62.5493612,7.6445723 55.3644064,12.7837417 49.6081734,19.2214573 C49.419821,19.3876436 49.2521416,19.57446 49.1108772,19.7807603 C40.3352633,29.8573838 35.0154566,43.0067355 35.0154566,57.3732591 C35.0154566,59.5268047 35.1394939,61.652844 35.3726371,63.7456461 C35.3749343,63.7720064 35.3783798,63.7972211 35.3818251,63.8224357 C35.8090634,67.6206532 36.6095613,71.3065519 37.7454181,74.8446021 L6.86136766,105.66472 C5.71287745,106.810833 5.71287745,108.668682 6.86136766,109.814795 C7.43561277,110.387851 8.18787393,110.674379 8.9401348,110.674379 C9.69239596,110.674379 10.4446571,110.387851 11.0189022,109.814795 L40.0504377,80.8445022 C40.8589748,82.6358765 41.7570943,84.3802603 42.7390535,86.0684843 C42.8286356,86.2702002 42.9423362,86.4593087 43.0744127,86.6346642 C50.3627314,98.8487879 62.0635497,108.146055 75.9671724,112.32249 L55.2552997,132.990341 C54.1079579,134.136454 54.1079579,135.994303 55.2552997,137.140415 C55.8295448,137.713472 56.5829544,138 57.3352156,138 C58.0874767,138 58.8397376,137.713472 59.413983,137.140415 L82.6950279,113.906417 C85.8855339,114.456551 89.1633248,114.746518 92.5077283,114.746518 C113.450447,114.746518 131.811361,103.511175 141.862947,86.7653209 C142.009954,86.575066 142.133991,86.368766 142.230464,86.1475661 L142.230464,86.1475661 Z M116.791405,86.2633234 L106.330957,70.1994068 L111.893095,53.1165961 L125.113366,50.1538947 L128.553094,49.3837069 L143.583385,64.7863164 C142.670335,71.0807678 140.612241,77.0107551 137.626166,82.3585174 L116.791405,86.2633234 Z M78.6856485,70.1994068 L68.2297936,86.2553008 L47.3307173,82.253075 C44.3366035,76.8606145 42.2853998,70.8779056 41.3964685,64.5284411 L56.4462843,49.3791225 L73.1235106,53.1165961 L76.8296883,64.5009344 L78.6856485,70.1994068 Z M49.7126861,28.6115591 L52.3645499,45.1534046 L40.9049144,56.6890298 C41.0415848,46.3063942 44.2676938,36.6538323 49.7126861,28.6115591 Z M84.0513948,67.6905661 L78.8579222,51.7401147 L92.4537495,41.883545 L106.049576,51.7412608 L100.856104,67.6905661 L84.0513948,67.6905661 Z M144.113988,56.9193984 L132.594631,45.1144369 L134.630904,27.6430939 C140.522659,35.9329275 144.018663,46.0278887 144.113988,56.9193984 Z M129.436283,21.4300164 L126.833804,43.755147 L120.50792,45.1717424 L110.266833,47.4662603 L95.5018424,36.7615671 L95.5018424,20.8775902 L111.458965,9.46459908 C118.282146,12.1625487 124.393262,16.2725092 129.436283,21.4300164 Z M104.445136,7.26177049 L92.3836914,15.8885614 L78.9371679,7.67895554 C83.2635307,6.50075161 87.8127003,5.86809737 92.5077283,5.86809737 C96.615878,5.86809737 100.612624,6.3517571 104.445136,7.26177049 Z M71.8015983,10.2004036 L89.5136145,21.0151237 L89.5136145,36.7615671 L79.099105,44.312158 L74.7497728,47.4662603 L58.0920707,43.7345171 L54.6695699,22.3858746 C59.4530315,17.237536 65.2747284,13.0645395 71.8015983,10.2004036 Z M51.8775901,89.0988065 L67.7416853,92.1382976 L75.8213141,106.113996 C66.2762118,102.851014 57.9841125,96.8694511 51.8775901,89.0988065 L51.8775901,89.0988065 Z M83.7803514,108.138032 L73.0637891,89.6008037 L83.5104561,73.5586634 L101.505001,73.5586634 L111.951668,89.6008037 L101.237403,108.136886 C98.3983348,108.621692 95.4823181,108.877278 92.5077283,108.877278 C89.5331388,108.878421 86.6182705,108.622838 83.7803514,108.138032 L83.7803514,108.138032 Z M109.195291,106.113996 L117.270326,92.144028 L133.073551,89.1813266 C126.97392,96.9118572 118.707087,102.862475 109.195291,106.113996 L109.195291,106.113996 Z" id="Shape"></path>
                <path d="M40.0372218,105.850835 L0.851686658,145.037506 C-0.283895553,146.173088 -0.283895553,148.013867 0.851686658,149.149449 C1.41947747,149.716105 2.16328389,150 2.90709031,150 C3.65089674,150 4.39470316,149.716105 4.96249397,149.148313 L44.1491652,109.962778 C45.2836116,108.827196 45.2836116,106.986417 44.1491652,105.850835 C43.013583,104.716388 41.172804,104.716388 40.0372218,105.850835 L40.0372218,105.850835 Z" id="Path"></path>
                <path d="M48,141 C47.2113279,141 46.4378904,141.320968 45.8800779,141.878563 C45.3222654,142.436158 45,143.209293 45,144.001171 C45,144.789536 45.3210936,145.560328 45.8800779,146.119094 C46.4378904,146.680203 47.2113279,147 48,147 C48.7898436,147 49.5632811,146.680203 50.1210936,146.119094 C50.6789061,145.561499 51,144.789536 51,144.001171 C51,143.209293 50.6800779,142.436158 50.1210936,141.878563 C49.5632811,141.320968 48.7898436,141 48,141 Z" id="Path"></path>
            </g>
        </g>
    </g>
</svg>